Genre:Comedy
Language:English
IMDb:http://www.imdb.com/title/tt1375670/
Source:Grown Ups DvD Screener/KiNGDOM.Thanks
Sample:yes
Encoder: Tony2
.........................................
General
Complete name : Grown Ups 2010 DVDSCR V2 XViD-FEEL-FREE
Format : AVI
Format/Info : Audio Video Interleave
File size : 1.17 GiB
Duration : 1h 42mn
Overall bit rate : 1 640 Kbps
.........................................
Video
ID : 0
Format : MPEG-4 Visual
Format profile : Simple@L3
Format settings, BVOP : Yes
Format settings, QPel : No
Format settings, GMC : No warppoints
Format settings, Matrix : Default (H.263)
Codec ID : XVID
Codec ID/Hint : XviD
Duration : 1h 42mn
Bit rate : 1 499 Kbps
Width : 720 pixels
Height : 320 pixels
Display aspect ratio : 2.25:1
Frame rate : 29.970 fps
Resolution : 24 bits
Scan type : Progressive
Bits/(Pixel*Frame) : 0.217
Stream size : 1.07 GiB (91%)
............................................
Audio
ID : 1
Format : MPEG Audio
Format version : Version 1
Format profile : Layer 3
Format settings, Mode : Joint stereo / MS Stereo
Codec ID : 55
Codec ID/Hint : MP3
Duration : 1h 42mn
Bit rate mode : Constant
Bit rate : 128 Kbps
Channel(s) : 2 channels
Sampling rate : 44.1 KHz
Resolution : 16 bits
Stream size : 93.8 MiB (8%)
Alignment : Aligned on interleaves
Interleave, duration : 26 ms (0.78 video frame)
Writing library : LAME3.97
...............................................
Plot:
After their high school basketball coach passes away, five good friends and former teammates reunite for a Fourth of July holiday weekend
...................................................